<svg xmlns="http://www.w3.org/2000/svg">
	<symbol id="snowflake" viewBox="0 0 46 50" fill="#B8C1EC">
		<path d="M43.5976 34.7123L45.3264 33.752C45.3963 33.7155 45.454 33.6606 45.4928 33.5937V33.5916C45.6916 33.2729 45.4928 32.7272 45.2594 32.3105C44.9547 31.7981 44.4274 31.2794 43.9974 31.5419L40.905 33.2417L38.8435 32.0877L40.5722 31.1274C40.6422 31.0909 40.6999 31.036 40.7386 30.969V30.967C40.7836 30.8671 40.8064 30.7592 40.8056 30.6503V30.6462C40.7638 30.3114 40.6513 29.9885 40.4752 29.6973C40.299 29.406 40.0629 29.1526 39.7813 28.9526L39.7748 28.9485C39.6946 28.8883 39.5972 28.8531 39.4957 28.8475C39.3942 28.842 39.2933 28.8663 39.2065 28.9172L39.2087 28.9151L36.1163 30.6149L33.6895 29.2693L34.9126 28.5964C34.9757 28.5523 35.0311 28.4989 35.0769 28.4381L35.079 28.436C35.12 28.3563 35.1421 28.2688 35.1439 28.1798C35.1124 27.9286 35.0291 27.686 34.8988 27.4664C34.7685 27.2467 34.5939 27.0544 34.3854 26.9008L34.381 26.8966C34.3044 26.847 34.214 26.8209 34.1217 26.8216C34.0515 26.8221 33.9823 26.837 33.9186 26.8654L33.9207 26.8633L31.6604 28.1132L26.1088 25.0365L31.6582 21.9618L33.9186 23.2117C33.9918 23.2447 34.0726 23.2589 34.1533 23.2531C34.2339 23.2472 34.3116 23.2215 34.3789 23.1784H34.3767C34.5886 23.0285 34.7659 22.8377 34.8972 22.6183C35.0285 22.3988 35.111 22.1554 35.1395 21.9035V21.8827C35.1399 21.7965 35.1168 21.7117 35.0725 21.6369L35.0747 21.639C35.0368 21.5716 34.9799 21.5159 34.9105 21.4786H34.9083L33.6852 20.8057L36.112 19.4601L39.2043 21.1599C39.2913 21.2108 39.3923 21.2349 39.4939 21.229C39.5955 21.223 39.6928 21.1873 39.7727 21.1265C40.3302 20.7287 40.7127 20.1287 40.8013 19.4392L40.8035 19.4267V19.4226C40.8041 19.3121 40.7806 19.2028 40.7343 19.1018L40.7365 19.1059C40.6907 19.0452 40.6353 18.9917 40.5722 18.9476L40.5701 18.9455L38.8413 17.9853L40.9029 16.8312L43.9952 18.531C44.4274 18.7872 44.959 18.2748 45.2572 17.7624C45.4025 17.5818 45.4994 17.3695 45.5393 17.1442C45.5793 16.919 45.5611 16.6877 45.4863 16.4709L45.4885 16.4813C45.4506 16.4139 45.3936 16.3582 45.3242 16.3209H45.3221L43.5933 15.3606L45.7543 14.1441C45.8882 14.0482 45.8882 13.44 45.3221 12.5109C44.7905 11.5819 44.2243 11.2611 44.0601 11.3569L41.8991 12.5734V10.6174C41.8966 10.5373 41.8728 10.4591 41.8299 10.3904L41.8321 10.3925C41.6698 10.2302 41.471 10.106 41.2511 10.0294C41.0312 9.95285 40.796 9.92597 40.5636 9.95084H40.5701C39.9715 9.95084 39.2411 10.1112 39.2411 10.6237V14.0524L37.1795 15.2064V13.2275C37.1791 13.1551 37.1557 13.0846 37.1125 13.0255C37.0484 12.9293 36.9579 12.8522 36.851 12.8026L36.8467 12.8005C36.5272 12.6552 36.1782 12.5804 35.8249 12.5814C35.4717 12.5825 35.1231 12.6595 34.8046 12.8067L34.8197 12.8005C34.7367 12.8479 34.6645 12.9112 34.6077 12.9864C34.5509 13.0616 34.5105 13.1472 34.4891 13.2379V16.6708L32.0623 18.0165V16.6396L32.0645 16.6104C32.0644 16.55 32.0404 16.4919 31.9975 16.4479C31.9491 16.3701 31.8816 16.305 31.8008 16.2584L31.7987 16.2563C31.304 16.0611 30.7493 16.0626 30.2557 16.2605L30.2687 16.2563C30.1913 16.2894 30.1252 16.343 30.0782 16.4108C30.0311 16.4787 30.005 16.558 30.0029 16.6396V19.1455L24.4513 22.2222V16.0334L26.7117 14.7836C26.7827 14.7426 26.8415 14.6846 26.8824 14.6153C26.9233 14.5459 26.9449 14.4676 26.9451 14.3878V14.3649C26.9136 14.1137 26.8303 13.8711 26.7 13.6514C26.5698 13.4318 26.3952 13.2395 26.1866 13.0859L26.1823 13.0817C26.1057 13.0321 26.0153 13.006 25.923 13.0067C25.8528 13.0071 25.7835 13.022 25.7198 13.0505L25.722 13.0484L24.4989 13.7212V11.0299L27.5912 9.33008C27.6722 9.28217 27.7391 9.21511 27.7856 9.13527C27.8321 9.05543 27.8567 8.96546 27.857 8.87389V8.84889V8.85098C27.8152 8.51626 27.7028 8.19333 27.5266 7.90208C27.3504 7.61083 27.1143 7.35742 26.8327 7.15744L26.8263 7.15327C26.746 7.09313 26.6486 7.05793 26.5471 7.05235C26.4456 7.04677 26.3448 7.07107 26.2579 7.12203L26.2601 7.11994L24.5313 8.08024V5.80552L27.6237 4.10574C28.0558 3.84952 27.857 3.17669 27.5567 2.66217C27.2563 2.14765 26.7247 1.63105 26.2947 1.89351L24.5659 2.85381V0.441611C24.5659 0.281215 23.9997 0 22.9041 0C21.8085 0 21.2423 0.293713 21.2423 0.441611V2.84548L19.5135 1.88518C19.0813 1.62896 18.5497 2.1414 18.2515 2.65383C17.9533 3.16627 17.7523 3.83285 18.1845 4.0974L21.2769 5.79719V8.07191L19.5481 7.11161C19.4611 7.06066 19.3601 7.03655 19.2585 7.04251C19.1569 7.04846 19.0597 7.0842 18.9797 7.14494C18.6984 7.34408 18.4621 7.5964 18.2852 7.8865C18.1084 8.17659 17.9947 8.49838 17.9511 8.83223L17.949 8.84473C17.949 9.16344 18.1154 9.28634 18.2148 9.32592L21.3071 11.0257V13.717L20.084 13.0442C20.0108 13.0112 19.9299 12.997 19.8493 13.0028C19.7687 13.0086 19.691 13.0344 19.6237 13.0775H19.6259C19.414 13.2274 19.2367 13.4182 19.1054 13.6376C18.9741 13.8571 18.8915 14.1005 18.863 14.3524V14.3607L18.8609 14.392C18.8605 14.4699 18.8817 14.5465 18.9224 14.6139C18.963 14.6813 19.0216 14.737 19.0921 14.7752L19.0943 14.7773L21.3547 16.0272V22.216L15.8031 19.1393V16.6333C15.8012 16.552 15.7754 16.4728 15.7287 16.405C15.6821 16.3372 15.6165 16.2834 15.5395 16.2501L15.5373 16.248C15.0426 16.0528 14.4879 16.0543 13.9944 16.2521L14.0073 16.248C13.9299 16.2811 13.8639 16.3346 13.8168 16.4025C13.7698 16.4703 13.7437 16.5497 13.7415 16.6313V18.0102L11.3148 16.6646V13.2358C11.3125 13.1389 11.28 13.0449 11.2214 12.9661C11.1628 12.8873 11.0808 12.8274 10.9863 12.7942L10.982 12.7922C10.6625 12.6469 10.3134 12.572 9.96017 12.5731C9.60692 12.5742 9.25836 12.6512 8.93984 12.7984L8.95496 12.7922C8.68916 12.9525 8.62433 13.1442 8.65026 13.2338V15.1898L6.58869 14.0357V10.6133C6.58869 10.1321 5.85828 9.94042 5.25969 9.94042C4.6611 9.94042 3.93069 10.1008 3.93069 10.6133V12.5693L1.76971 11.3527C1.63573 11.2569 1.07172 11.609 0.5077 12.5068C-0.0239003 13.4358 -0.0584759 14.0462 0.0755047 14.1399L2.23648 15.3564L0.5077 16.3167C0.0755047 16.5729 0.274315 17.2458 0.574691 17.7603C0.875067 18.2748 1.40667 18.7914 1.8367 18.5289L4.92906 16.8291L6.99063 17.9832L5.26185 18.9435C5.1809 18.9914 5.11399 19.0584 5.06747 19.1383C5.02095 19.2181 4.99637 19.3081 4.99605 19.3997V19.4247V19.4226C5.08681 20.1225 5.46715 20.7245 6.02036 21.1161L6.02684 21.1203C6.10711 21.1804 6.20446 21.2156 6.30596 21.2212C6.40746 21.2268 6.50833 21.2025 6.59518 21.1515L6.59301 21.1536L9.68537 19.4538L12.1122 20.7995L10.889 21.4723C10.818 21.5133 10.7592 21.5713 10.7183 21.6406C10.6774 21.71 10.6558 21.7883 10.6557 21.8681V21.891C10.6871 22.1422 10.7705 22.3848 10.9007 22.6045C11.031 22.8241 11.2056 23.0164 11.4142 23.17L11.4185 23.1742C11.4951 23.2238 11.5855 23.2499 11.6778 23.2492C11.748 23.2488 11.8172 23.2339 11.8809 23.2054L11.8788 23.2075L14.1392 21.9577L19.6907 25.0344L14.1392 28.1111L11.8788 26.8612C11.8055 26.8282 11.7247 26.814 11.6441 26.8198C11.5635 26.8257 11.4858 26.8514 11.4185 26.8946H11.4206C11.2087 27.0444 11.0315 27.2352 10.9002 27.4547C10.7688 27.6741 10.6863 27.9175 10.6578 28.1694V28.1777L10.6557 28.209C10.6553 28.2869 10.6765 28.3636 10.7172 28.4309C10.7578 28.4983 10.8164 28.554 10.8869 28.5923L10.889 28.5943L12.1122 29.2672L9.68537 30.6128L6.59301 28.9131C6.50605 28.8621 6.40501 28.838 6.30343 28.8439C6.20185 28.8499 6.10459 28.8856 6.02468 28.9464C5.74332 29.1455 5.507 29.3978 5.33015 29.6879C5.15329 29.978 5.03962 30.2998 4.99605 30.6337L4.99389 30.6462C4.99389 30.9649 5.16029 31.0878 5.25969 31.1274L6.98847 32.0877L4.9269 33.2417L1.83454 31.5419C1.40235 31.2857 0.870745 31.7981 0.57253 32.3105C0.274315 32.823 0.0733437 33.4896 0.505539 33.7541L2.23432 34.7144L0.0733438 35.9309C-0.0606369 36.0267 -0.0606369 36.635 0.505539 37.5641C1.03714 38.4931 1.60332 38.8139 1.76755 38.7181L3.92853 37.5016V39.4576C3.92853 39.9388 4.65894 40.1304 5.25753 40.1304C5.85612 40.1304 6.58653 39.97 6.58653 39.4576V36.0288L8.6481 34.8748V36.8308C8.65062 36.9243 8.6803 37.0153 8.73378 37.0934C8.78727 37.1714 8.8624 37.2335 8.95064 37.2724L8.95496 37.2745C9.27445 37.4198 9.62351 37.4946 9.97676 37.4935C10.33 37.4925 10.6786 37.4155 10.9971 37.2683L10.982 37.2745C11.065 37.227 11.1371 37.1638 11.194 37.0886C11.2508 37.0134 11.2912 36.9278 11.3126 36.8371V33.4042L13.7394 32.0585V33.4354C13.7413 33.5168 13.7671 33.5959 13.8138 33.6638C13.8604 33.7316 13.926 33.7853 14.003 33.8187L14.0052 33.8208C14.4998 34.016 15.0546 34.0145 15.5481 33.8166L15.5351 33.8208C15.6125 33.7877 15.6786 33.7341 15.7256 33.6662C15.7727 33.5984 15.7988 33.5191 15.8009 33.4375V30.9315L21.3201 27.8569V34.0457L19.0597 35.2956C18.9887 35.3366 18.9299 35.3945 18.889 35.4639C18.8481 35.5332 18.8265 35.6116 18.8263 35.6914V35.7143C18.8578 35.9655 18.9411 36.2081 19.0714 36.4277C19.2017 36.6474 19.3762 36.8397 19.5848 36.9933L19.5891 36.9975C19.6561 37.0391 19.7382 37.0641 19.8268 37.0641H19.8571H19.8549H19.8701C19.9372 37.0638 20.0021 37.0409 20.0537 36.9995L21.2769 36.3267V39.018L18.1262 40.6824C18.0452 40.7303 17.9783 40.7974 17.9318 40.8772C17.8853 40.9571 17.8607 41.047 17.8604 41.1386V41.1636V41.1615C17.9511 41.8614 18.3314 42.4634 18.8847 42.8551L18.8911 42.8592C18.9919 42.9161 19.1052 42.949 19.2218 42.955H19.2369C19.3157 42.955 19.3926 42.9317 19.4573 42.8884H19.4552L21.1839 41.9281V44.2028L18.0916 45.9026C17.6594 46.1588 17.8582 46.8316 18.1564 47.3462C18.4222 47.7628 18.7874 48.1794 19.1872 48.1794C19.2696 48.1728 19.3497 48.1501 19.4227 48.1127L19.4184 48.1148L21.1472 47.1545V49.5584C21.1472 49.7188 21.7134 50 22.809 50C23.9046 50 24.4708 49.7063 24.4708 49.5584V47.1545L26.1996 48.1148C26.2704 48.1515 26.3484 48.1735 26.4286 48.1794H26.4308C26.796 48.1794 27.1958 47.7628 27.4616 47.3462C27.7663 46.8337 27.9608 46.1671 27.5264 45.9026L24.434 44.2028V41.9281L26.1628 42.8884C26.2298 42.928 26.3098 42.9509 26.3941 42.953C26.5123 42.9468 26.6272 42.9132 26.729 42.8551L26.7247 42.8571C27.2822 42.4593 27.6647 41.8593 27.7533 41.1699L27.7555 41.1574C27.7555 40.8386 27.5891 40.7157 27.4897 40.6762L24.3973 38.9764V36.285L25.6204 36.9579C25.6711 36.9994 25.7354 37.0223 25.8019 37.0225H25.8192C25.9128 37.0129 26.0045 36.9904 26.0915 36.9558L26.085 36.9579C26.2969 36.808 26.4742 36.6173 26.6055 36.3978C26.7368 36.1783 26.8194 35.9349 26.8479 35.683V35.6747L26.85 35.6435C26.8504 35.5655 26.8292 35.4889 26.7885 35.4215C26.7479 35.3541 26.6893 35.2984 26.6188 35.2602L26.6166 35.2581L24.3563 34.0082V27.8194L29.9078 30.8961V33.4021C29.9098 33.4834 29.9355 33.5626 29.9822 33.6304C30.0288 33.6983 30.0945 33.752 30.1714 33.7854L30.1736 33.7874C30.6683 33.9826 31.223 33.9811 31.7165 33.7833L31.7036 33.7874C31.7843 33.7409 31.8519 33.6757 31.9002 33.5979L31.9024 33.5958C31.9343 33.5369 31.9569 33.4737 31.9694 33.4083V32.0272L34.3962 33.3729V36.8017C34.4005 37.0058 34.5366 37.1766 34.7246 37.2433L34.7289 37.2453C35.0484 37.3906 35.3975 37.4655 35.7507 37.4644C36.104 37.4633 36.4526 37.3863 36.7711 37.2391L36.7559 37.2453C36.8571 37.1871 36.9464 37.1115 37.0196 37.0225L37.0217 37.0204C37.0659 36.9616 37.0894 36.8908 37.0887 36.8183V34.8394L39.1503 35.9934V39.4222C39.1503 39.9033 39.8807 40.095 40.4793 40.095C40.7107 40.1189 40.9446 40.0915 41.1633 40.015C41.3821 39.9384 41.5797 39.8148 41.7413 39.6534C41.778 39.5839 41.8 39.5082 41.8062 39.4305V37.4724L43.9671 38.6889C44.1011 38.7847 44.6651 38.4327 45.2291 37.5349C45.7607 36.6058 45.7953 35.9955 45.6613 35.9018L43.5976 34.7123Z"/>
	</symbol>
</svg>
